<?xml version="1.0" encoding="UTF-8" standalone="no"?>
<!-- Created with Inkscape (http://www.inkscape.org/) -->

<svg
   xmlns:dc="http://purl.org/dc/elements/1.1/"
   xmlns:cc="http://creativecommons.org/ns#"
   xmlns:rdf="http://www.w3.org/1999/02/22-rdf-syntax-ns#"
   xmlns:svg="http://www.w3.org/2000/svg"
   xmlns="http://www.w3.org/2000/svg"
   xmlns:sodipodi="http://sodipodi.sourceforge.net/DTD/sodipodi-0.dtd"
   xmlns:inkscape="http://www.inkscape.org/namespaces/inkscape"
   version="1.1"
   width="351"
   height="377"
   id="svg6075"
   inkscape:version="0.48.3.1 r9886"
   sodipodi:docname="quebec.svg">
  <sodipodi:namedview
     pagecolor="#ffffff"
     bordercolor="#666666"
     borderopacity="1"
     objecttolerance="10"
     gridtolerance="10"
     guidetolerance="10"
     inkscape:pageopacity="0"
     inkscape:pageshadow="2"
     inkscape:window-width="1920"
     inkscape:window-height="1024"
     id="namedview3039"
     showgrid="false"
     inkscape:zoom="1.2519894"
     inkscape:cx="69.427115"
     inkscape:cy="71.576772"
     inkscape:window-x="0"
     inkscape:window-y="27"
     inkscape:window-maximized="1"
     inkscape:current-layer="layer1" />
  <defs
     id="defs6077">
    <filter
       color-interpolation-filters="sRGB"
       id="filter5740-7">
      <feGaussianBlur
         id="feGaussianBlur5742-8"
         stdDeviation="0.34329855" />
    </filter>
  </defs>
  <metadata
     id="metadata6080">
    <rdf:RDF>
      <cc:Work
         rdf:about="">
        <dc:format>image/svg+xml</dc:format>
        <dc:type
           rdf:resource="http://purl.org/dc/dcmitype/StillImage" />
        <dc:title />
      </cc:Work>
    </rdf:RDF>
  </metadata>
  <g
     transform="translate(0,-675.36218)"
     id="layer1">
    <path
       d="m 401.96555,581.30921 c -0.17782,-0.10478 -0.28236,6.7e-4 1.21368,-1.21881 1.04322,-0.85019 1.17715,-0.932 1.29062,-0.78826 0.18837,0.23884 0.16356,0.32401 -0.27915,0.96021 -0.35665,0.51248 -0.48616,0.61645 -1.07223,0.86067 -0.70847,0.29527 -0.91147,0.32804 -1.15292,0.18619 l 0,0 z m 5.06087,-2.93679 c -0.25,-0.0524 -0.62786,-0.22152 -0.83992,-0.37748 l -0.38529,-0.28344 1.16184,-0.65635 1.16184,-0.65636 0.0695,-0.59952 c 0.0694,-0.59685 0.0732,-0.60276 0.81697,-1.25951 0.41134,-0.36283 0.79316,-0.65971 0.84872,-0.65971 0.0632,0 0.10045,0.56299 0.10045,1.49217 l 0,1.49217 -0.43019,0.3662 c -0.75299,0.64117 -1.67375,1.25628 -1.86473,1.2458 -0.10169,0 -0.38939,-0.0524 -0.63926,-0.10344 z m 3.41496,-5.78304 c -0.2087,-0.0201 -0.37959,-0.0618 -0.37959,-0.0914 0,-0.0295 0.30668,-0.60208 0.68143,-1.272 0.64386,-1.1507 0.75795,-1.29188 2.07505,-2.56361 1.09116,-1.05358 1.43751,-1.33514 1.59587,-1.29659 0.14819,0.0363 0.20214,0.12762 0.20152,0.34363 -7.5e-4,0.25389 -0.11161,0.37882 -0.80408,0.90352 l -0.80333,0.60893 -0.0657,0.57173 c -0.0632,0.54364 -0.11285,0.62773 -1.02159,1.71771 -0.52568,0.63043 -0.98811,1.13915 -1.02779,1.13042 -0.0397,-0.0134 -0.24281,-0.0322 -0.45164,-0.0524 z m -6.15891,5.15987 c -0.13728,-0.21628 -0.27022,-0.42383 -0.29527,-0.4613 -0.0409,-0.0605 0.0198,-0.17491 0.55866,-1.06245 l 0.6043,-0.99446 0.86695,-0.8639 0.86695,-0.86403 0.30779,0.0202 c 0.16939,0.0134 0.58445,0.0309 0.92238,0.043 0.33792,0.0134 0.65055,0.0322 0.69457,0.043 0.0707,0.0175 -0.18254,0.29204 -2.09116,2.26943 -1.19434,1.23734 -2.17451,2.25276 -2.17835,2.25679 0,0 -0.11905,-0.16993 -0.25682,-0.3862 l 0,0 z m -5.39892,2.59692 c -0.90601,-0.95188 -0.91159,-0.9586 -1.09264,-1.33151 l -0.18205,-0.37465 0.40564,-0.56716 0.40551,-0.56702 -0.0434,-0.79686 c -0.0236,-0.43819 -0.0521,-0.85019 -0.062,-0.91561 l -0.0186,-0.11822 1.74605,0.15838 c 1.25807,0.11418 1.86224,0.18323 2.16173,0.24691 0.61471,0.1303 0.55791,0.0806 0.61459,0.53827 l 0.0484,0.39346 0.27877,0.2735 0.27877,0.2735 0.0707,0.32254 0.0707,0.32253 -1.8522,1.53919 c -1.01873,0.84657 -1.86733,1.54403 -1.88593,1.54967 -0.0186,0 -0.44346,-0.42006 -0.94433,-0.94625 z m 185.82004,-65.28385 c -1.04912,-0.39318 1.07838,-2.69777 2.14709,-2.32577 0.54639,0.19024 0.66011,1.2526 0.15328,1.43323 -0.16865,0.06 -0.30667,0.26115 -0.30667,0.44672 0,0.46185 -1.22187,0.73508 -1.9937,0.44582 z m -3.5102,11.36805 -0.83508,-0.72325 0,-1.53287 c 0,-1.52133 0,-1.53462 0.60851,-1.76689 0.45028,-0.17329 0.64187,-0.39977 0.73711,-0.87128 0.0806,-0.40179 0.27853,-0.68134 0.53423,-0.7567 0.2231,-0.0658 0.51253,-0.35236 0.64311,-0.63674 0.13071,-0.28438 0.72769,-0.92058 1.32666,-1.41359 0.59908,-0.493 1.43602,-1.23507 1.85988,-1.64891 0.42387,-0.41385 0.85815,-0.75245 0.96529,-0.75245 0.10665,0 0.55556,0.34338 0.99679,0.76309 l 0.80234,0.76309 -1.05234,0.97741 c -1.04069,0.96666 -1.05793,0.97392 -1.57145,0.66132 -0.67176,-0.40877 -0.67696,-0.4077 -1.01551,0.20634 -0.47446,0.86027 -0.63455,2.48274 -0.28224,2.86009 0.27071,0.28989 1.44272,3.2745 1.32454,3.37297 -0.0273,0.0228 -0.68305,0.30654 -1.45773,0.63123 -1.90429,0.7982 -2.53611,0.7747 -3.58411,-0.13299 z M 563.2557,488.84456 c -3.02198,-0.29103 -6.07087,-0.87489 -6.77549,-1.29743 -0.70449,-0.42253 -1.88556,-0.76824 -2.62465,-0.76824 -0.88481,0 -2.08695,-0.82577 -3.51938,-2.41739 -1.19644,-1.32958 -2.5975,-2.4174 -3.11325,-2.4174 -0.51588,0 -1.41123,-0.39797 -1.98985,-0.88435 -0.64932,-0.5457 -2.59366,-1.01555 -5.07781,-1.22706 -2.21418,-0.18851 -4.19163,-0.49677 -4.39426,-0.68503 -0.46305,-0.4301 1.93801,-3.49629 3.04765,-3.89175 0.45362,-0.16173 5.79309,-0.0435 11.86532,0.26278 l 11.04041,0.55679 2.65033,1.80113 c 2.94757,2.00311 6.52797,3.53027 8.27674,3.53027 0.63109,0 1.64995,0.59335 2.26416,1.31856 0.6141,0.72521 1.47745,1.18995 1.91855,1.03274 1.43144,-0.51021 2.66136,2.90423 1.60282,4.44953 -0.62092,0.90636 -8.80565,1.24993 -15.17129,0.63685 z M 397.84386,585.1784 c 0,-1.29228 1.11013,-1.94608 4.17613,-2.46004 1.18355,-0.19841 2.91291,-0.95538 3.84297,-1.68225 0.92995,-0.72701 2.17984,-1.32171 2.77731,-1.32171 1.41793,0 3.33511,-3.25475 2.81452,-4.77822 -0.2815,-0.82373 -0.1384,-1.13095 0.52642,-1.13095 0.53175,0 1.564,-1.23345 2.47286,-2.95466 0.99381,-1.88201 1.92277,-2.95452 2.55931,-2.95452 0.5496,0 1.55867,-0.90648 2.24233,-2.01446 0.87712,-1.42152 2.71828,-2.85297 6.2544,-4.86259 2.75623,-1.56633 6.70307,-4.15936 8.77068,-5.76209 4.81044,-3.72895 8.82734,-6.21653 13.77705,-8.53176 2.75709,-1.2896 5.22649,-3.07233 8.19552,-5.9163 2.33707,-2.23866 4.72586,-4.07043 5.30821,-4.07043 0.73674,0 1.05904,-0.39843 1.05904,-1.30934 0,-0.91454 0.95698,-2.08902 3.17364,-3.89472 2.69522,-2.19554 3.1765,-2.86882 3.19262,-4.4655 0.0161,-1.65015 0.73091,-2.55394 5.83862,-7.38644 4.74584,-4.49026 6.13114,-5.50634 7.50715,-5.50634 1.2329,0 1.68739,-0.25779 1.68739,-0.95725 0,-1.09103 10.43513,-9.24956 11.8306,-9.24956 0.49133,0 0.89336,-0.24173 0.89336,-0.5372 0,-0.29545 0.6353,-0.5372 1.41172,-0.5372 0.77655,0 1.57579,-0.24632 1.77606,-0.54742 0.2004,-0.30108 1.7122,-1.17886 3.35979,-1.95063 1.64746,-0.77179 3.1342,-1.60312 3.30372,-1.84745 0.16952,-0.24431 2.38185,-1.33027 4.9161,-2.41326 4.92751,-2.10568 12.09375,-3.80422 18.19934,-4.31357 3.35197,-0.27967 4.16671,-0.13932 7.51868,1.2951 3.39463,1.45268 7.51868,4.32628 7.51868,5.23899 0,0.19642 -0.65068,0.20544 -1.44595,0.0202 -1.22831,-0.28636 -1.44582,-0.15119 -1.44582,0.89838 0,0.8986 0.50856,1.41379 1.86534,1.88942 l 1.86522,0.654 -1.28696,0.83726 c -0.81313,0.52903 -1.28697,1.39513 -1.28697,2.35262 0,1.64618 -1.25324,2.97013 -2.43852,2.5761 -1.16382,-0.38689 -2.76664,0.61678 -2.76664,1.73242 0,0.85677 -4.83202,6.42988 -6.65124,7.67128 -1.02195,0.69739 -2.67004,0.43967 -4.36747,-0.68295 -3.11326,-2.05911 -4.98654,-2.36895 -7.67258,-1.26907 -1.33049,0.54474 -2.58162,1.20427 -2.78041,1.46556 -0.19891,0.26129 -0.53956,0.20753 -0.7572,-0.11942 -0.57292,-0.86113 -2.64077,-0.73078 -2.64077,0.16647 0,0.41857 -1.10604,1.1033 -2.45799,1.52157 -1.96493,0.60799 -2.5314,1.07507 -2.82344,2.32786 -0.2009,0.86201 -0.39609,1.26233 -0.43379,0.88942 -0.0806,-0.79203 -4.74161,-0.30964 -5.3495,0.55358 -0.48438,0.68779 -4.5344,-0.55331 -4.92987,-1.51057 -0.37029,-0.89614 -5.96943,-0.45808 -6.85076,0.53599 -0.31808,0.3588 -1.29403,0.81782 -2.1688,1.02012 -1.56499,0.36203 -1.59054,0.43497 -1.59054,4.54986 0,4.02086 -0.0719,4.2456 -1.8796,5.83517 -1.03387,0.9093 -2.87776,1.9493 -4.09776,2.31093 -2.07877,0.61645 -2.31761,0.56917 -3.80349,-0.75321 -1.53412,-1.36509 -1.61671,-1.37866 -2.55347,-0.41724 -0.53238,0.54634 -0.96802,1.58111 -0.96802,2.29925 0,0.72406 -0.51538,1.60474 -1.15663,1.97671 -0.63629,0.36901 -1.15676,1.04847 -1.15676,1.50991 0,0.46143 -1.69176,3.09261 -3.75936,5.84725 -3.43233,4.57243 -3.75934,5.24691 -3.75934,7.75169 0,1.98679 -0.22223,2.74348 -0.80569,2.74348 -1.01006,0 -1.50783,1.16951 -1.50783,3.54304 0,1.01395 -0.29898,2.28823 -0.66444,2.83188 -0.48984,0.72835 -0.49777,1.43279 -0.0298,2.67806 0.59636,1.58903 0.4633,1.88765 -2.22733,5.00176 -1.5738,1.82142 -2.86151,3.6051 -2.86151,3.96363 0,0.35867 -0.39038,0.95296 -0.86757,1.32077 -0.5294,0.4081 -0.86757,1.5854 -0.86757,3.02034 0,1.75372 -0.2252,2.35164 -0.88567,2.35164 -0.48711,0 -1.02568,-0.33879 -1.19669,-0.75281 -0.17114,-0.41414 -0.81363,-0.87491 -1.42784,-1.02415 -0.83025,-0.20164 -1.11671,0 -1.11671,0.81043 0,0.7168 -0.27865,0.98224 -0.82639,0.78692 -0.45462,-0.162 -1.73824,-0.45337 -2.85259,-0.64762 -1.8708,-0.32589 -2.00089,-0.26356 -1.69756,0.81379 0.18056,0.64171 -0.0124,2.11602 -0.42101,3.27612 l -0.74951,2.1093 -19.49102,0 c -10.7201,0 -20.69867,0.15381 -22.17451,0.34161 -2.45736,0.31286 -2.68331,0.24663 -2.68331,-0.78679 z m -22.48473,-9.7867 c -0.96628,-1.21397 -1.72261,-1.58647 -3.22151,-1.58647 -1.07726,0 -2.04553,0.23078 -2.15156,0.51288 -0.11284,0.29902 -0.91605,0.21023 -1.92784,-0.21305 -0.95425,-0.39938 -2.23403,-0.87975 -2.84391,-1.06768 -0.84512,-0.26047 -0.94829,-0.49086 -0.43378,-0.96881 1.23662,-1.14855 0.69805,-2.85928 -1.53883,-4.88812 -1.44644,-1.31176 -2.96618,-2.12138 -4.3836,-2.33497 -1.63581,-0.24664 -2.89053,-1.03504 -5.09951,-3.20439 -2.22894,-2.18909 -3.33039,-2.87741 -4.60409,-2.87741 -0.92076,0 -2.63978,-0.45176 -3.81998,-1.00401 -1.18019,-0.55211 -3.83758,-1.27253 -5.90519,-1.60084 -3.36251,-0.53398 -3.98479,-0.83918 -5.89416,-2.89072 -1.32838,-1.42756 -2.28363,-3.10538 -2.52892,-4.44266 -0.21676,-1.18187 -1.32169,-3.84099 -2.45525,-5.90918 -1.74481,-3.18343 -2.85618,-6.96208 -3.08101,-10.47543 -0.0285,-0.44317 0.74343,-10.47543 1.71529,-22.29376 0.97174,-11.8184 2.46568,-30.3115 3.31985,-41.09579 0.8543,-10.78426 1.7783,-20.47321 2.05347,-21.53095 0.40415,-1.55327 0.87873,-2.03107 2.46791,-2.48406 1.0821,-0.30849 2.22968,-0.41002 2.55012,-0.22563 0.32044,0.1844 0.77146,1.54396 1.00237,3.02126 0.75497,4.83019 2.03263,5.8695 3.19472,2.59878 0.54775,-1.54166 0.54565,-2.76488 -0.0124,-5.65248 l -0.70896,-3.68505 3.33176,-3.88282 c 4.35297,-5.07288 4.09081,-4.67393 4.51753,-6.8778 0.35876,-1.85312 0.25992,-1.9922 -2.81637,-3.9601 l -3.18828,-2.03954 0,-4.08057 c 0,-2.24432 -0.28621,-8.661 -0.63592,-14.25927 -0.63592,-10.17703 -0.63641,-10.17918 -2.5412,-12.91011 -1.47384,-2.11297 -1.986,-3.53267 -2.2623,-6.27027 l -0.35714,-3.53887 4.19957,-1.50635 c 7.02177,-2.51862 18.70294,-9.37193 23.08022,-13.54107 4.07742,-3.88352 8.97764,-10.18824 9.44454,-12.15134 0.15414,-0.64828 0.94606,-4.43001 1.75981,-8.40385 l 1.47943,-7.22518 -1.8243,-8.35362 c -1.91681,-8.7775 -2.17276,-9.36584 -8.31593,-19.12068 -2.98168,-4.73484 -3.91658,-5.75024 -7.63934,-8.29738 -3.77471,-2.58276 -4.24186,-3.09658 -4.24186,-4.66653 0,-1.52345 0.32243,-1.91692 2.36226,-2.8835 1.74282,-0.82583 2.66136,-1.74761 3.50326,-3.51546 0.72731,-1.52715 1.96814,-2.90446 3.42153,-3.79777 2.38631,-1.46683 2.60469,-1.78995 1.77631,-2.62874 -0.27716,-0.28069 -0.37662,-2.01489 -0.22074,-3.85379 0.27729,-3.27329 0.30866,-3.32682 1.50014,-2.5517 1.54491,1.00507 2.11634,1.00128 2.11634,-0.014 0,-0.46558 0.52332,-0.80581 1.23935,-0.80581 1.18677,0 1.22633,-0.17681 0.93218,-4.16336 -0.22545,-3.05523 -0.73848,-4.98002 -1.92735,-7.23166 -1.52941,-2.89643 -1.56537,-3.12448 -0.64299,-4.07123 1.18243,-1.21357 1.26601,-2.26132 0.18043,-2.26132 -0.43812,0 -1.12476,-0.36715 -1.52568,-0.81589 -0.59425,-0.66512 -0.55395,-0.99552 0.21838,-1.78819 1.2138,-1.24582 1.19706,-1.68937 -0.0645,-1.71041 -0.55667,-0.009 -1.48352,-0.61832 -2.05979,-1.35342 -1.03907,-1.32565 -1.03076,-1.35475 1.01216,-3.57161 1.85196,-2.00954 2.0598,-2.55224 2.0598,-5.37844 0,-2.33659 0.22879,-3.22495 0.89175,-3.46124 0.49058,-0.17482 0.82243,-0.71114 0.73736,-1.19183 -0.0843,-0.4807 0.0335,-1.15178 0.26302,-1.49135 0.24504,-0.36239 -0.4473,-1.32261 -1.67623,-2.32492 -1.42164,-1.15932 -2.32518,-2.51337 -2.81427,-4.21743 -0.71888,-2.50453 -0.71367,-2.52207 2.45439,-8.25147 l 3.17476,-5.74163 2.67773,0.98251 c 1.47274,0.54037 5.67069,2.11626 9.32884,3.50197 5.69698,2.15805 7.57672,2.60361 13.10281,3.10597 l 6.45158,0.58651 2.99103,-2.32591 2.99085,-2.32591 1.8811,1.83025 c 1.03461,1.00664 5.56937,5.36825 10.07723,9.69247 7.1531,6.86161 8.19614,8.08625 8.19614,9.62256 0,2.19208 3.0319,6.72311 4.79197,7.16138 0.70437,0.17543 4.98603,0.32225 9.51472,0.32628 l 8.23384,0.007 2.01639,2.01449 c 1.10902,1.10799 2.02346,2.28504 2.03214,2.61572 0.0124,0.33066 -1.14733,2.50771 -2.56873,4.83788 l -2.58422,4.23667 3.08101,10.74091 c 1.69458,5.9075 3.6326,11.59811 4.30683,12.6458 1.36944,2.12795 3.90877,4.06236 5.96435,4.54361 0.85976,0.20129 2.36126,1.74003 4.08573,4.18707 1.49952,2.12785 4.54062,5.53876 6.75778,7.5798 l 4.03142,3.71099 1.62849,-0.98681 c 4.59987,-2.78741 8.06915,-5.42959 7.86491,-5.98974 -0.18664,-0.51163 2.27147,-5.74783 3.08919,-6.58057 0.12153,-0.12426 0.80953,0.28684 1.52779,0.91356 l 1.30594,1.13952 2.59577,-5.87368 c 2.549,-5.76779 2.62961,-5.87382 4.47549,-5.88265 2.12824,-0.0107 2.12229,-0.001 1.204,-1.87295 -0.57676,-1.17574 -0.51327,-1.48802 0.43379,-2.13393 1.06623,-0.7272 1.04775,-0.77848 -0.47223,-1.31756 -1.71108,-0.60681 -3.46903,-3.69066 -2.6311,-4.61579 0.27108,-0.29928 0.87426,-1.02763 1.34066,-1.61857 0.84773,-1.07439 0.84773,-1.07439 1.74667,0 0.8414,1.00573 0.89125,0.88553 0.77964,-1.88019 -0.0967,-2.39811 0.23066,-3.59604 1.73824,-6.36034 1.38407,-2.53763 1.76329,-3.80424 1.48786,-4.9691 -0.53956,-2.28175 0.34388,-1.92196 2.80794,1.14365 1.37117,1.70593 3.25103,5.42118 5.08351,10.04664 2.82096,7.12077 3.04505,7.47938 7.51273,12.02485 3.84652,3.91347 4.54667,4.90118 4.25066,5.99652 -0.24777,0.91705 -0.0806,1.40893 0.55631,1.6359 0.55134,0.19653 0.91047,0.96685 0.91047,1.95301 0,1.5967 0.73872,2.15418 1.44595,1.09126 0.19655,-0.29547 0.75236,-0.53719 1.23513,-0.53719 0.64088,0 0.83334,0.479 0.71318,1.77464 -0.23686,2.55329 1.66172,4.68834 5.8045,6.52749 4.08573,1.81384 4.34367,2.62237 2.34129,7.34072 -0.65105,1.53442 -1.06921,3.06753 -0.92895,3.40686 0.14025,0.33936 1.38865,0.95792 2.77445,1.37458 1.52048,0.45716 3.81626,1.89638 5.79012,3.62967 l 3.27062,2.87213 -1.39102,3.17945 c -1.81809,4.156 -1.75659,5.67098 0.43168,10.62467 2.28214,5.16622 2.54417,5.46895 4.73306,5.46895 1.2267,0 2.15925,0.43339 2.97337,1.38181 0.90588,1.05511 2.32058,1.62712 5.98456,2.41956 2.63904,0.57077 5.46149,0.88318 6.27189,0.69424 1.39163,-0.32442 1.43367,-0.27418 0.75484,0.90383 -0.64212,1.11444 -0.5475,1.37413 0.88828,2.43749 1.41631,1.04896 1.56425,1.43805 1.24716,3.28 -0.3564,2.07066 -0.33644,2.09785 2.17214,2.96146 2.2659,0.77999 2.66298,0.78638 3.77844,0.0607 1.84141,-1.19799 3.93221,-0.48722 5.06664,1.72239 0.52704,1.02635 1.14833,1.86611 1.38072,1.86611 0.23252,0 1.24146,-0.96027 2.24234,-2.13395 l 1.81958,-2.13395 4.68581,2.69938 c 7.03877,4.05491 6.35039,3.91687 9.00592,1.80561 l 2.3537,-1.87127 1.4581,1.35429 c 0.80184,0.74485 2.01825,1.35428 2.7029,1.35428 0.90118,0 1.14734,0.23624 0.89138,0.8557 -0.19445,0.47065 -0.50993,1.43455 -0.70115,2.142 -0.25471,0.94276 -2.03685,2.18482 -6.67293,4.65058 -6.6841,3.55514 -6.77314,3.66765 -5.43743,6.87081 0.23958,0.57439 -0.49034,1.27209 -2.43356,2.32624 -1.52668,0.82817 -3.19274,2.18047 -3.70229,3.00512 -0.69235,1.12064 -1.6595,1.66272 -3.82866,2.14606 -2.82369,0.62919 -2.91112,0.70737 -3.22747,2.88939 -1.01613,7.00666 -1.07565,8.42048 -0.35417,8.42048 1.27854,0 12.75422,-10.90722 14.15466,-13.45337 0.91705,-1.66764 2.44397,-3.15859 4.82036,-4.70682 1.91284,-1.2463 4.05523,-3.13369 4.76096,-4.19421 l 1.28288,-1.92818 3.82072,0.35553 c 3.16819,0.2948 4.04952,0.60224 5.16064,1.8002 1.17834,1.27037 1.30049,1.82643 1.01254,4.60891 -0.2691,2.5997 -0.1508,3.2843 0.6632,3.8371 0.85579,0.58121 1.49753,0.24156 4.71024,-2.49272 2.04566,-1.74109 4.16894,-3.16563 4.7183,-3.16563 0.54936,0 2.31414,0.54393 3.92167,1.20871 3.18542,1.31728 7.04248,5.23779 7.05215,7.16809 0,0.61852 0.54701,2.55245 1.20884,4.2976 0.7644,2.01584 1.1838,4.39146 1.15007,6.51411 -0.0471,2.95711 0.1054,3.43766 1.32751,4.1813 1.04639,0.63681 1.4746,1.5185 1.76924,3.64249 0.2138,1.54127 0.67387,3.5493 1.02221,4.4623 0.62054,1.62591 0.4597,1.85447 -7.8354,11.13115 -4.65803,5.20911 -8.46908,9.90163 -8.46908,10.42778 0,0.72333 -2.09588,1.77841 -8.59284,4.32566 -8.38501,3.28746 -8.65709,3.44567 -11.24404,6.53992 -1.8775,2.24551 -2.8036,3.94983 -3.1734,5.83983 -0.34338,1.75457 -1.76291,4.53329 -4.14352,8.11105 -4.45999,6.7029 -7.04223,8.60104 -12.30332,9.04415 -1.92946,0.1625 -5.72774,1.10482 -8.44056,2.09404 l -4.93247,1.79858 -10.78842,0 c -10.56732,0 -10.8146,0.0257 -12.06163,1.2587 -1.22336,1.2095 -1.89995,1.29659 -17.3071,2.22746 -15.7292,0.95034 -16.09701,0.9992 -19.34853,2.57103 -2.78661,1.34715 -3.78464,1.56031 -6.26718,1.33875 l -2.95278,-0.26355 -2.35469,2.74591 c -2.62986,3.06673 -6.21422,9.79899 -6.23394,11.70878 -0.0124,0.68414 -0.49467,1.82602 -1.08359,2.5375 -0.93838,1.13382 -1.65714,1.32515 -5.81839,1.5489 -5.06218,0.27218 -6.50391,1.14204 -4.33462,2.61538 1.04155,0.70733 1.02246,0.79368 -0.48438,2.19322 l -1.56847,1.45687 0,-1.24124 c 0,-1.84834 -1.21095,-1.14767 -2.67078,1.54529 -0.70202,1.29518 -3.36636,4.17952 -5.92057,6.40962 -4.26468,3.7235 -4.72761,4.33626 -5.66636,7.50052 -0.74368,2.50698 -1.59413,3.97056 -3.12158,5.37199 -1.15453,1.05947 -2.68604,3.30297 -3.40318,4.98576 -0.71727,1.68266 -2.32059,4.32513 -3.56316,5.87197 -1.24245,1.54671 -2.25908,3.10914 -2.25908,3.47184 0,0.36283 -1.13158,1.95092 -2.51453,3.52907 -1.38307,1.57828 -2.91781,3.59475 -3.41062,4.48121 -0.99778,1.79456 -14.69075,10.67465 -17.45331,11.31864 -0.92002,0.2144 -2.04962,1.05385 -2.57678,1.91465 -0.51625,0.84308 -1.36088,1.53436 -1.87701,1.53624 -0.51612,0 -2.5691,1.2141 -4.56192,2.69378 -2.64921,1.96704 -3.81725,2.54118 -4.34392,2.13509 -0.51303,-0.39534 -0.81276,-0.33154 -1.04143,0.22165 -0.17647,0.42731 -1.86212,1.74915 -3.74582,2.93719 -4.14501,2.61453 -9.92123,8.04373 -9.93735,9.34045 -0.0124,0.60517 -0.46181,0.94006 -1.27569,0.94006 -0.69519,0 -1.80123,0.46399 -2.45798,1.03128 -1.62842,1.40633 -6.24454,1.65727 -7.71702,0.41939 -0.59624,-0.50107 -2.23527,-1.12155 -3.64252,-1.37893 -1.40714,-0.25738 -2.81873,-0.55345 -3.13682,-0.65797 -0.31808,-0.10478 -1.22905,0.19546 -2.02432,0.66643 -0.79527,0.47097 -3.33275,1.29658 -5.63907,1.83459 -2.3062,0.53814 -4.19312,1.16493 -4.19312,1.39303 0,0.2281 -0.48054,0.65367 -1.06797,0.94571 -0.86323,0.42906 -1.31016,0.22662 -2.33075,-1.05546 l 0,0 z"
       transform="matrix(1.0740037,0,0,1.0176979,-347.89293,455.651)"
       id="path3265-6"
       style="fill:#0000ff;fill-opacity:1;fill-rule:nonzero;stroke:none;" />
  </g>
</svg>
